# xmcd
#
# Track frame offsets:
#	182
#	10615
#	19805
#	32940
#	42852
#	53390
#	67067
#	77322
#	88307
#	101867
#	113792
#	124190
#	134882
#	146860
#	157917
#	167197
#	178005
#	189257
#	202872
#	214065
#	224117
#
# Disc length: 3149 seconds
#
# Revision: 2
# Processed by: cddbd v1.5.1PL0 Copyright (c) Steve Scherf et al.
# Submitted via: MusicWizard 7.1.1b
#
DISCID=310c4b15
DTITLE=Pat Boone - Pat´s Great Hits
DYEAR=1900
DGENRE=Oldie
TTITLE0=Love Letters In The Sand
TTITLE1=Why Baby Why
TTITLE2=Anastasia
TTITLE3=Bernardine
TTITLE4=Remember You´re Mine
TTITLE5=Chains Of Love
TTITLE6=Don´t Forbid Me
TTITLE7=I´m In Love With You
TTITLE8=Friendly Persuasion
TTITLE9=I Almost Lost My Mind
TTITLE10=I´m Waiting Just For You
TTITLE11=There´s A Goldmine In The Sky
TTITLE12=Two Hearts
TTITLE13=Ain´t That A Shame
TTITLE14=At My Front Door
TTITLE15=No Arms Can Ever Hold You
TTITLE16=Gee Whittakers
TTITLE17=I´ll Be Home
TTITLE18=Tutti Frutti
TTITLE19=Long Tall Sally
TTITLE20=Just As Long As I´m With You
EXTD=
EXTT0=Yesterday: 17.10.1997
EXTT1=
EXTT2=
EXTT3=
EXTT4=Yesterday: 09.12.1994
EXTT5=
EXTT6=Yesterday: 06.01.1995
EXTT7=
EXTT8=
EXTT9=
EXTT10=
EXTT11=Yesterday: 05.01.1996
EXTT12=
EXTT13=Yesterday: 21.03.1997
EXTT14=
EXTT15=
EXTT16=
EXTT17=
EXTT18=Yesterday: 08.11.1996
EXTT19=
EXTT20=
PLAYORDER=
